<svg t="1661938704259" class="icon" viewBox="0 0 1024 1024" version="1.1" xmlns="http://www.w3.org/2000/svg" p-id="9664" width="200" height="200"><path d="M363.50976 111.5136c23.57248 0 58.7008-3.63008 105.39008-10.88 46.6944-7.25504 81.8176-10.88 105.39008-10.88 14.51008 0 28.1088 3.1744 40.80128 9.5232 4.5312-2.72384 21.2992-4.08576 50.31424-4.08576 8.16128 0 20.62336 1.13664 37.39648 3.39968 16.77312 2.26816 29.696 3.39968 38.7584 3.39968 38.98368 0 69.35552-8.15616 91.1104-24.4736-3.62496-19.94752-4.98688-35.35872-4.08064-46.23872-14.50496-10.88-25.83552-18.12992-33.9968-21.76l-8.15616 4.08064-4.08064-4.08064h-5.43744c-18.13504 0-29.4656 3.63008-33.9968 10.88l-202.74688-0.01536C467.1232 20.1728 413.21984 17.4592 378.4704 12.24192c-3.62496-0.91136-14.04928-3.1744-31.27296-6.80448C333.5936 1.81248 323.16416 0 315.904 0c-9.0624 0-16.31744 1.36192-21.75488 4.08064L287.35488 2.7136l-2.71872 6.79936c-17.2288 4.53632-30.37184 7.7056-39.43936 9.5232h-8.15616c-12.6976 6.34368-19.49184 10.42432-20.39808 12.2368l-9.5232-4.08064-2.7136 6.79936-4.08576-1.3568c-1.81248 4.5312-2.7136 8.61184-2.7136 12.2368l-1.36704 2.71872c-1.81248 0.90624-3.1744 1.36192-4.07552 1.36192l6.79936 13.59872c44.42112 9.0624 71.168 14.95552 80.2304 17.67936 53.48864 20.84864 81.59744 31.27808 84.31616 31.27808zM274.47296 780.544c-0.99328-5.55008-0.32768-11.43296 2.00192-17.64864l2.71872-4.08064h1.36192c0 2.71872-0.90624 6.79936-2.71872 12.2368l-0.97792 3.10272c-1.16224 3.9168-1.7408 6.9632-1.7408 9.1392l-0.64-2.74944z m-26.79808-19.63008l-0.19456 0.4096c-4.23936 9.4208-6.36416 26.2656-6.36416 50.52928 0 0.90624 0.45568 2.7136 1.36192 5.43744 0-11.78624 1.5872-29.4656 4.7616-53.03296l0.4352-3.34336z m20.77184 126.50496l-0.7424 2.00192c-2.30912 6.56896-3.46624 12.4416-3.46624 17.62304v16.31744l4.20864-35.9424z m-66.89792-61.09696l-0.7936 5.98016c-7.0656 53.85216-10.8288 99.03616-11.264 135.552l-0.03072 3.29216 0.1024-3.59936c0.4608-14.65344 2.18112-34.34496 5.15584-59.07456l0.8448-6.86592c4.08064-32.64 6.1184-56.66304 6.1184-72.07424l-0.10752-3.10272-0.0256-0.10752z m0 0l0.6656-4.90496c1.50528-10.99776 3.13856-22.3488 4.90496-34.048 0.90624-9.96864 5.44256-18.5856 13.59872-25.83552l-12.2368 96.55296c1.81248-12.69248 3.62496-24.9344 5.43744-36.71552 3.63008-18.12992 7.7056-29.00992 12.2368-32.64-13.5936 89.7536-20.39296 158.65856-20.39296 206.70464 10.88-123.29472 26.2912-218.0352 46.2336-284.21632 0 11.78624-1.5872 29.4656-4.7616 53.03808l0.44032-3.34336 0.8192-1.63328c0.70656-1.27488 1.4592-2.37056 2.26304-3.29216l1.23904-1.2544 4.08064-1.3568 8.15616-20.3776-0.01536 0.95744c-0.30208 8.34048-4.05504 35.8656-11.264 82.57024l-0.95744 6.20544 16.32256-20.39808-0.00512 1.34144 0.91136-3.6864c0.30208-1.25952 0.60416-2.54464 0.90624-3.85024l0.90624-4.00896c0.90624-4.07552 2.26304-7.02464 4.08064-8.83712v12.2368l9.51808-33.9968v-1.3568c0.90624 0 1.81248 1.81248 2.71872 5.43744-9.0624 9.0624-13.59872 35.35872-13.59872 78.8736v14.96064l4.08064-4.08064 2.71872-8.16128 4.08064-1.3568v6.29248l0.02048-2.56c0.1024-15.91296 0.4864-25.14944 1.16224-27.70944l0.17408-0.50176h1.36192c2.71872 0.90624 4.08064 0.90624 4.08064 0l-4.08064-1.36192-1.36192-1.3568 2.72384-9.5232a12.06784 12.06784 0 0 1 5.43744-1.3568h-1.36192c4.53632-15.4112 9.06752-24.47872 13.59872-27.19744-3.62496 13.59872-5.43744 23.1168-5.43744 28.55936l-0.01536 10.0352-2.2528 12.32384c-2.11456 11.58656-4.22912 23.2192-6.3488 34.90304l-6.34368 35.21024c-8.15616 47.13984-12.2368 80.2304-12.2368 99.27168 0 3.62496 0.45056 11.33056 1.36192 23.1168v-12.2368c4.5312 0 7.7056 1.81248 9.51808 5.43744 0-19.03616 4.5312-38.98368 13.59872-59.83744l-2.71872-4.07552-1.36192-2.72384v-1.3568l4.08064 1.3568c-3.62496-20.84864-1.36192-34.44736 6.79936-40.79616 2.71872-19.03616 4.98688-33.09056 6.79936-42.15296l4.08064-6.80448v-1.3568c0.90624 0 1.3568 1.3568 1.3568 4.08064l5.44256-14.96064c-1.81248-2.71872-2.72384-5.888-2.72384-9.5232 3.63008-8.15616 7.25504-14.04928 10.88-17.67424l-2.7136-4.08064 5.43744-35.35872c3.62496-17.22368 9.0624-26.2912 16.31744-27.19744-2.71872-11.78624-2.71872-20.39808 0-25.83552l6.79936-1.36192v-4.08064c-3.62496 0.91136-5.44256 0-5.44256-2.7136v-1.36192l2.72384 1.3568 5.43744-8.15616c4.5312-49.8688 14.0544-89.7536 28.55936-119.67488l-8.16128-8.15616v-4.08064c0-0.90624 0.90624-1.36192 2.71872-1.36192l4.08064 1.36192c0-12.69248 2.26816-25.38496 6.79936-38.07744 9.97376-29.91616 26.74688-47.59552 50.31424-53.03296l78.87872-8.16128 10.87488 2.71872a1060.43392 1060.43392 0 0 1 32.64-9.5232l12.2368 1.36192c62.55616-12.68736 109.70112-20.84864 141.42976-24.4736 11.78624-9.97376 23.1168-15.872 33.9968-17.67936 16.31744-10.88 28.1088-19.49184 35.35872-25.84064-2.71872-15.4112-4.08064-26.74176-4.08064-33.9968-19.03616-9.0624-33.09056-14.04928-42.15808-14.95552-6.3488 5.43744-10.87488 9.96864-13.59872 13.59872 0-2.72384-1.81248-5.89312-5.43744-9.5232-13.59872 7.25504-39.43936 15.18592-77.5168 23.79776-38.07232 8.61696-65.72544 12.92288-82.94912 12.92288H484.54144c-25.38496 3.62496-43.97056 6.3488-55.7568 8.15616 0-23.57248 4.5312-57.79456 13.59872-102.67136l1.64352-8.28928c7.97184-40.82176 11.9552-72.28416 11.9552-94.38208 0-8.16128-8.61184-29.4656-25.84064-63.91296l-1.3568 6.79936-6.79936-5.44256h-9.5232l-1.3568 2.71872c-1.81248-0.90624-3.1744-1.81248-4.08064-2.7136l-1.3568 5.43744-5.44256-9.5232c0.90624 3.63008 0.45568 6.79936-1.3568 9.5232H393.4208l-2.71872-1.36192-4.08064 2.71872-6.79936-1.3568-10.88-9.5232-1.3568 1.36192a25.66656 25.66656 0 0 1-8.16128-1.36192l-5.43744 1.36192-10.88-1.36192h-10.88l-2.71872 2.72384-6.79936-2.72384c-19.94752 0-32.64 14.0544-38.07744 42.15808-21.76 110.60736-33.09056 174.52032-33.9968 191.744-3.63008 53.48864-11.78624 109.24544-24.47872 167.2704C201.6768 649.5744 189.44 745.6768 189.44 825.45664v57.8304l0.0512-5.64736c0.38912-24.704 3.10784-43.74016 8.16128-57.11872l1.31072-3.2256c1.08544 1.63328 1.8432 3.75296 2.28352 6.36416l0.30208 2.66752z" fill="#061161" p-id="9665"></path></svg>